<?xml version="1.0" encoding="iso-8859-1"?>
<!-- Generator: Adobe Illustrator 18.0.0, SVG Export Plug-In . SVG Version: 6.00 Build 0)  -->
<!DOCTYPE svg PUBLIC "-//W3C//DTD SVG 1.1//EN" "http://www.w3.org/Graphics/SVG/1.1/DTD/svg11.dtd">
<svg version="1.1" id="Capa_1" xmlns="http://www.w3.org/2000/svg" xmlns:xlink="http://www.w3.org/1999/xlink" x="0px" y="0px"
	 viewBox="0 0 300.5 300.5" style="enable-background:new 0 0 300.5 300.5;" xml:space="preserve">
<g id="_x32_3-Camera_Roll">
	<path d="M111.915,5c0-2.762-2.238-5-5-5H52.371c-2.761,0-5,2.238-5,5v26.633h64.544V5z"/>
	<path d="M47.371,295.5c0,2.762,2.239,5,5,5h54.544c2.762,0,5-2.238,5-5v-26.633H47.371V295.5z"/>
	<path d="M140.907,41.633H18.378c-4.142,0-7.5,3.357-7.5,7.5v202.234c0,4.143,3.358,7.5,7.5,7.5h122.529c4.143,0,7.5-3.357,7.5-7.5
		V49.133C148.407,44.99,145.05,41.633,140.907,41.633z M39.917,233.781c0,3.682-2.986,6.666-6.668,6.666
		c-3.682,0-6.666-2.984-6.666-6.666V66.719c0-3.682,2.984-6.668,6.666-6.668c3.682,0,6.668,2.986,6.668,6.668V233.781z"/>
	<path d="M163.977,60.051v180.396h70.278l53.598-174.361c0.598-2.01,1.184-4.023,1.77-6.035H163.977z M202.753,227.404h-26.417
		v-20.619h26.417V227.404z M202.753,93.715h-26.417V73.096h26.417V93.715z M260.739,93.715h-26.418V73.096h26.418V93.715z"/>
</g>
<g>
</g>
<g>
</g>
<g>
</g>
<g>
</g>
<g>
</g>
<g>
</g>
<g>
</g>
<g>
</g>
<g>
</g>
<g>
</g>
<g>
</g>
<g>
</g>
<g>
</g>
<g>
</g>
<g>
</g>
</svg>
